# xmcd
#
# Track frame offsets:
#	150
#	17107
#	34012
#	53241
#	69038
#	89870
#	106596
#	124799
#	137821
#	155721
#	171248
#	192213
#	216340
#
# Disc length: 3200 seconds
#
# Revision: 0
# Processed by: cddbd v1.5.1PL0 Copyright (c) Steve Scherf et al.
# Submitted via: dBpowerAMP V4.0
#
DISCID=b60c7e0d
DTITLE=Gary Rex Tanner - Classy Women
DYEAR=1900
DGENRE=Blues
TTITLE0=Along Comes A Woman
TTITLE1=Up All Night
TTITLE2=Classy Women
TTITLE3=Long Night
TTITLE4=El Dorado
TTITLE5=When The Rooster Crows
TTITLE6=Throwin A Party
TTITLE7=Louisiana Blues
TTITLE8=If Your Lookin For A Saint
TTITLE9=Small Talk
TTITLE10=Hey Marguerita
TTITLE11=Call It Love
TTITLE12=Sidewalk Reunion
EXTD=
EXTT0=
EXTT1=
EXTT2=
EXTT3=
EXTT4=
EXTT5=
EXTT6=
EXTT7=
EXTT8=
EXTT9=
EXTT10=
EXTT11=
EXTT12=
PLAYORDER=
